<svg viewBox="0 0 2048 1492"  xmlns="http://www.w3.org/2000/svg"><path d="M926 357h139l223 1h160l201-1h69v291l-1 491-1 12-1 1H927l-1-1-1-273V517z" fill="#fff"/><path d="M926 357h139l223 1h160l201-1h69v291l-1 491-1 12-1 1H927l-1-1-1-273V517zm73 74-1 1-1 22v621l3 3h113l298-1h231l4-2-1-643-8-1zm-325-74h144l1 3-1 53-1 18-1 1h-69l-1 21v612l1 11 1 1 7 1h62l1 2-1 71-73 1h-70l-1-1V404zm-253 0h145v48l-1 22-1 5h-68l-2 5-1 384v74l1 175 1 7 2 1h68l1 1v45l-1 27-2 1H421z"/><path d="m1191 560 5 2 39 26 19 12 25 16 17 11 22 14 17 11 19 12 20 13 22 14 17 11 19 12 17 11 21 13 12 8 6 5-4 4-15 10-20 12-22 14-21 13-25 16-44 28-24 15-57 36-17 11-22 14-15 10-10 6h-2V626z"/></svg>